<svg width="33" height="33" viewBox="0 0 33 33" fill="none" xmlns="http://www.w3.org/2000/svg">
<path d="M27.4739 6.37305H22.4739V5.37305C22.4739 4.5774 22.1578 3.81434 21.5952 3.25173C21.0326 2.68912 20.2695 2.37305 19.4739 2.37305H13.4739C12.6782 2.37305 11.9152 2.68912 11.3526 3.25173C10.7899 3.81434 10.4739 4.5774 10.4739 5.37305V6.37305H5.47388C5.20866 6.37305 4.95431 6.4784 4.76677 6.66594C4.57923 6.85348 4.47388 7.10783 4.47388 7.37305C4.47388 7.63826 4.57923 7.89262 4.76677 8.08015C4.95431 8.26769 5.20866 8.37305 5.47388 8.37305H6.47388V26.373C6.47388 26.9035 6.68459 27.4122 7.05966 27.7873C7.43474 28.1623 7.94344 28.373 8.47388 28.373H24.4739C25.0043 28.373 25.513 28.1623 25.8881 27.7873C26.2632 27.4122 26.4739 26.9035 26.4739 26.373V8.37305H27.4739C27.7391 8.37305 27.9934 8.26769 28.181 8.08015C28.3685 7.89262 28.4739 7.63826 28.4739 7.37305C28.4739 7.10783 28.3685 6.85348 28.181 6.66594C27.9934 6.4784 27.7391 6.37305 27.4739 6.37305ZM12.4739 5.37305C12.4739 5.10783 12.5792 4.85348 12.7668 4.66594C12.9543 4.4784 13.2087 4.37305 13.4739 4.37305H19.4739C19.7391 4.37305 19.9934 4.4784 20.181 4.66594C20.3685 4.85348 20.4739 5.10783 20.4739 5.37305V6.37305H12.4739V5.37305ZM24.4739 26.373H8.47388V8.37305H24.4739V26.373ZM14.4739 13.373V21.373C14.4739 21.6383 14.3685 21.8926 14.181 22.0802C13.9934 22.2677 13.7391 22.373 13.4739 22.373C13.2087 22.373 12.9543 22.2677 12.7668 22.0802C12.5792 21.8926 12.4739 21.6383 12.4739 21.373V13.373C12.4739 13.1078 12.5792 12.8535 12.7668 12.6659C12.9543 12.4784 13.2087 12.373 13.4739 12.373C13.7391 12.373 13.9934 12.4784 14.181 12.6659C14.3685 12.8535 14.4739 13.1078 14.4739 13.373ZM20.4739 13.373V21.373C20.4739 21.6383 20.3685 21.8926 20.181 22.0802C19.9934 22.2677 19.7391 22.373 19.4739 22.373C19.2087 22.373 18.9543 22.2677 18.7668 22.0802C18.5792 21.8926 18.4739 21.6383 18.4739 21.373V13.373C18.4739 13.1078 18.5792 12.8535 18.7668 12.6659C18.9543 12.4784 19.2087 12.373 19.4739 12.373C19.7391 12.373 19.9934 12.4784 20.181 12.6659C20.3685 12.8535 20.4739 13.1078 20.4739 13.373Z" fill="black"/>
</svg>
